<svg xmlns="http://www.w3.org/2000/svg" width="40" height="40" viewBox="0 0 40 40" fill="none">
<rect width="40" height="40" rx="2" fill="#000238"/>
<rect x="0.5" y="0.5" width="39" height="39" rx="1.5" stroke="#000238" stroke-opacity="0.1"/>
<rect x="15" y="18.0951" width="0.860929" height="14.9049" rx="0.430464" fill="white"/>
<rect x="15.2152" y="18.3104" width="0.430464" height="14.4744" rx="0.215232" stroke="black" stroke-opacity="0.1" stroke-width="0.430464"/>
<rect x="16.7219" y="13.3496" width="0.860929" height="19.6504" rx="0.430464" fill="white"/>
<rect x="16.9371" y="13.5648" width="0.430464" height="19.2199" rx="0.215232" stroke="black" stroke-opacity="0.1" stroke-width="0.430464"/>
<rect x="18.5762" y="7" width="0.860929" height="26" rx="0.430464" fill="white"/>
<rect x="18.7914" y="7.21523" width="0.430464" height="25.5695" rx="0.215232" stroke="black" stroke-opacity="0.1" stroke-width="0.430464"/>
<rect x="20.4305" y="18.162" width="0.860929" height="14.838" rx="0.430464" fill="white"/>
<rect x="20.6458" y="18.3772" width="0.430464" height="14.4076" rx="0.215232" stroke="black" stroke-opacity="0.1" stroke-width="0.430464"/>
<rect x="22.2849" y="15.3547" width="0.860929" height="17.6452" rx="0.430464" fill="white"/>
<rect x="22.5001" y="15.57" width="0.430464" height="17.2148" rx="0.215232" stroke="black" stroke-opacity="0.1" stroke-width="0.430464"/>
<rect x="24.1391" y="24.3111" width="0.860929" height="8.68894" rx="0.430464" fill="white"/>
<rect x="24.3543" y="24.5263" width="0.430464" height="8.25848" rx="0.215232" stroke="black" stroke-opacity="0.1" stroke-width="0.430464"/>
</svg>